#!OML:ASF F:\VICON\USERDATA\INSTALL\rory3\rory3.ASF
:FULLY-SPECIFIED
:DEGREES
2596
root -1.95036 17.6642 -3.97728 4.62301 -38.9991 4.35415
lowerback 12.2459 -0.384028 -5.10562
upperback 1.93814 -1.048 3.10952
thorax -4.6772 -0.430273 6.35636
lowerneck -24.6126 1.31178 -7.07268
upperneck 18.942 3.51744 3.45128
head 9.87242 1.51918 2.9109
rclavicle 7.27552e-014 -7.95139e-016
rhumerus -12.0616 -2.52668 -74.0626
rradius 127.141
rwrist -11.016
rhand -11.8571 28.5821
rfingers 7.12502
rthumb 14.1947 -0.912853
lclavicle 7.27552e-014 -7.95139e-016
lhumerus 7.9944 -5.37215 81.4733
lradius 119.885
lwrist -0.883598
lhand -16.8716 10.185
lfingers 7.12502
lthumb 9.35923 39.9572
rfemur -39.7973 -3.04964 11.697
rtibia 72.587
rfoot -4.13546 2.7201
rtoes 6.0027
lfemur -18.3631 3.11877 -22.3296
ltibia 49.3937
lfoot -6.32133 -11.2789
ltoes -21.0412
2597
root -1.90057 17.752 -4.02688 4.94445 -38.4305 4.06019
lowerback 11.7652 -0.672937 -4.64059
upperback 2.16939 -1.34811 3.27516
thorax -4.13046 -0.611576 6.28941
lowerneck -24.7898 1.27349 -7.99017
upperneck 18.817 3.74891 3.7095
head 9.82161 1.59411 3.18397
rclavicle -3.97569e-015 7.15625e-015
rhumerus -10.8604 -1.21321 -73.8197
rradius 126.635
rwrist -12.1893
rhand -11.5145 28.3104
rfingers 7.12502
rthumb 14.5248 -1.16114
lclavicle -3.97569e-015 7.15625e-015
lhumerus 7.59271 -4.50878 81.3503
lradius 119.81
lwrist -0.715359
lhand -16.9467 10.7292
lfingers 7.12502
lthumb 9.28678 40.5047
rfemur -37.8954 -3.61799 12.5505
rtibia 72.4981
rfoot -3.42097 2.14787
rtoes 5.17289
lfemur -20.2928 3.69714 -21.9769
ltibia 51.052
lfoot -4.23373 -12.0413
ltoes -21.6038
2598
root -1.85346 17.8247 -4.08132 5.25164 -37.8609 3.79031
lowerback 11.4881 -0.402211 -3.96172
upperback 2.1856 -0.911411 2.90283
thorax -4.0405 -0.406952 5.42856
lowerneck -24.5321 0.915967 -7.4187
upperneck 18.7124 3.03541 3.67819
head 9.79603 1.30528 2.97002
rclavicle 2.8625e-014 1.98785e-014
rhumerus -10.796 -1.63273 -73.7845
rradius 126.254
rwrist -12.6316
rhand -11.7091 27.9942
rfingers 7.12502
rthumb 14.3373 -1.49073
lclavicle 2.8625e-014 1.98785e-014
lhumerus 7.48554 -5.55049 80.9173
lradius 119.462
lwrist -0.417764
lhand -17.0196 10.168
lfingers 7.12502
lthumb 9.21642 39.9466
rfemur -35.9255 -4.06933 13.386
rtibia 72.0202
rfoot -2.17955 1.47255
rtoes 2.36272
lfemur -22.1703 4.23054 -21.6556
ltibia 52.5583
lfoot -3.4835 -12.3248
ltoes -22.5379
2599
root -1.80939 17.885 -4.13934 5.49923 -37.3376 3.60579
lowerback 11.3976 -0.418852 -3.87292
upperback 2.12807 -0.913574 3.03186
thorax -4.04994 -0.406756 5.51403
lowerneck -24.4341 0.767517 -7.98749
upperneck 18.7728 2.96671 3.92919
head 9.79181 1.2607 3.14112
rclavicle -1.12512e-013 1.59028e-015
rhumerus -10.1578 -0.672315 -73.3513
rradius 125.617
rwrist -13.0386
rhand -12.265 27.7783
rfingers 7.12502
rthumb 13.8016 -1.74382
lclavicle -1.12512e-013 1.59028e-015
lhumerus 6.98184 -5.19744 80.8779
lradius 119.265
lwrist -0.203315
lhand -16.8939 9.58836
lfingers 7.12502
lthumb 9.33774 39.3615
rfemur -33.8802 -4.44453 14.125
rtibia 71.1649
rfoot -0.822488 0.534204
rtoes 1.14117
lfemur -23.9373 4.71551 -21.4292
ltibia 53.904
lfoot -3.83692 -11.1475
ltoes -23.5378
2600
root -1.76652 17.9342 -4.20001 5.71608 -36.8128 3.39904
lowerback 11.4423 -0.315482 -3.73495
upperback 2.03616 -0.759567 3.02261
thorax -4.19234 -0.325496 5.40562
lowerneck -24.3251 0.579031 -8.10623
upperneck 18.852 2.71538 4.03164
head 9.81483 1.1458 3.16079
rclavicle 5.04913e-014 -1.19271e-014
rhumerus -9.4711 -0.27779 -73.1963
rradius 124.841
rwrist -13.1008
rhand -12.8741 27.8742
rfingers 7.12502
rthumb 13.2146 -1.687
lclavicle 5.04913e-014 -1.19271e-014
lhumerus 6.5365 -5.32067 80.7938
lradius 119.156
lwrist -0.128075
lhand -16.8105 9.56396
lfingers 7.12502
lthumb 9.41823 39.3335
rfemur -31.7265 -4.73104 14.8741
rtibia 69.944
rfoot 0.117218 -0.160557
rtoes 1.75691
lfemur -25.5062 5.09423 -21.208
ltibia 55.0584
lfoot -4.74019 -8.26737
ltoes -24.146
2601
root -1.7275 17.9748 -4.26119 5.8945 -36.3807 3.29476
lowerback 11.5746 -0.146527 -3.79632
upperback 1.85439 -0.544654 2.99052
thorax -4.48237 -0.205163 5.38124
lowerneck -24.1957 0.440414 -8.02821
upperneck 19.0025 2.48447 4.03256
head 9.86294 1.04035 3.11684
rclavicle -2.42517e-014 -2.94201e-014
rhumerus -8.79644 0.0596806 -73.2247
rradius 123.919
rwrist -12.9282
rhand -13.5479 28.1693
rfingers 7.12502
rthumb 12.565 -1.4329
lclavicle -2.42517e-014 -2.94201e-014
lhumerus 5.89693 -5.54633 80.8581
lradius 119.012
lwrist -0.574085
lhand -16.8889 9.45407
lfingers 7.12502
lthumb 9.34251 39.227
rfemur -29.5412 -4.87414 15.5155
rtibia 68.4055
rfoot 0.876866 -0.840447
rtoes 2.69234
lfemur -26.9517 5.45503 -21.0922
ltibia 55.9489
lfoot -5.69841 -4.98256
ltoes -22.9312
2602
root -1.69238 18.006 -4.31252 6.03639 -36.2041 3.35862
lowerback 11.5951 0.211202 -3.89568
upperback 1.66826 -0.088277 2.80572
thorax -4.74484 0.0335811 5.17477
lowerneck -24.2769 0.157767 -7.85584
upperneck 19.2979 2.03923 4.03403
head 10.0158 0.840601 3.03322
rclavicle 6.36111e-015 -5.56597e-015
rhumerus -8.56028 0.163297 -73.0969
rradius 123.18
rwrist -13.1324
rhand -14.1474 28.5372
rfingers 7.12502
rthumb 11.987 -1.0996
lclavicle 6.36111e-015 -5.56597e-015
lhumerus 5.42103 -6.20621 80.8818
lradius 118.937
lwrist -1.0817
lhand -17.0113 9.41366
lfingers 7.12502
lthumb 9.22443 39.1919
rfemur -27.3872 -4.76723 15.9414
rtibia 66.6217
rfoot 1.46873 -1.59272
rtoes 3.99269
lfemur -28.3541 5.87664 -21.148
ltibia 56.516
lfoot -6.60374 -2.38236
ltoes -20.225
2603
root -1.65835 18.0191 -4.35781 6.19441 -36.1401 3.5265
lowerback 11.1777 0.592919 -3.69948
upperback 1.76027 0.430495 2.28783
thorax -4.47208 0.274738 4.4281
lowerneck -24.7877 -0.229541 -7.46395
upperneck 19.4595 1.37773 4.14537
head 10.2108 0.579249 2.9219
rclavicle -8.66701e-014 1.74931e-014
rhumerus -8.18762 -0.233221 -73.1215
rradius 122.634
rwrist -13.2139
rhand -14.0612 28.5633
rfingers 7.12502
rthumb 12.0701 -1.06859
lclavicle -8.66701e-014 1.74931e-014
lhumerus 5.65639 -7.06698 80.394
lradius 118.846
lwrist -1.37763
lhand -17.0793 9.37197
lfingers 7.12502
lthumb 9.15884 39.1531
rfemur -25.325 -4.55225 16.2612
rtibia 64.674
rfoot 1.50851 -2.04422
rtoes 4.61564
lfemur -29.7626 6.20136 -21.2338
ltibia 56.7474
lfoot -7.34642 -0.740701
ltoes -18.1182
2604
root -1.61905 18.011 -4.40954 6.46525 -35.9696 3.61703
lowerback 10.8713 0.755697 -3.62879
upperback 1.68669 0.652874 2.00725
thorax -4.39826 0.382307 4.05762
lowerneck -24.8344 -0.40333 -7.43992
upperneck 19.4223 1.09856 4.2838
head 10.2231 0.471659 2.92535
rclavicle 3.73715e-014 -3.97569e-015
rhumerus -7.79172 -0.0717897 -73.0698
rradius 122.114
rwrist -12.8322
rhand -13.0532 28.1552
rfingers 7.12502
rthumb 13.0419 -1.41711
lclavicle 3.73715e-014 -3.97569e-015
lhumerus 5.42425 -7.13926 80.142
lradius 118.804
lwrist -1.91951
lhand -16.8716 9.2037
lfingers 7.12502
lthumb 9.35923 38.9759
rfemur -23.4075 -4.31646 16.6781
rtibia 62.6323
rfoot 0.880517 -2.22405
rtoes 4.78782
lfemur -31.1891 6.23724 -21.1442
ltibia 56.6893
lfoot -7.95004 0.148031
ltoes -16.8307
2605
root -1.57709 17.9867 -4.46333 6.74387 -35.7418 3.81752
lowerback 10.5719 0.743372 -3.82395
upperback 1.3871 0.622525 1.91876
thorax -4.54402 0.380611 4.08024
lowerneck -24.1384 -0.358138 -7.70365
upperneck 19.2102 1.18283 4.35339
head 10.0156 0.499162 2.9924
rclavicle 2.78299e-015 1.59028e-015
rhumerus -7.56759 0.850017 -73.0327
rradius 121.515
rwrist -12.3005
rhand -12.4974 27.8616
rfingers 7.12502
rthumb 13.5777 -1.67569
lclavicle 2.78299e-015 1.59028e-015
lhumerus 4.52753 -6.69878 80.1615
lradius 119.001
lwrist -2.53956
lhand -16.6226 9.16418
lfingers 7.12502
lthumb 9.59947 38.9255
rfemur -21.5811 -4.05059 16.9856
rtibia 60.4986
rfoot -0.233657 -2.03563
rtoes 5.03174
lfemur -32.5751 6.08357 -21.1203
ltibia 56.392
lfoot -8.4844 0.515186
ltoes -15.9141
2606
root -1.5363 17.949 -4.5141 6.97753 -35.3704 4.12697
lowerback 10.2122 0.711434 -3.98766
upperback 1.15731 0.567468 1.73614
thorax -4.57876 0.361493 3.98889
lowerneck -23.662 -0.373219 -7.92655
upperneck 19.0136 1.1727 4.47232
head 9.85935 0.493661 3.05923
rclavicle 3.3197e-014 -4.05521e-014
rhumerus -7.26604 1.54334 -73.2587
rradius 120.897
rwrist -11.8535
rhand -12.7772 28.0453
rfingers 7.12502
rthumb 13.308 -1.50983
lclavicle 3.3197e-014 -4.05521e-014
lhumerus 3.8758 -6.45348 80.111
lradius 119.297
lwrist -2.93352
lhand -16.6309 9.39855
lfingers 7.12502
lthumb 9.59149 39.1602
rfemur -19.7609 -3.8237 17.2204
rtibia 58.2389
rfoot -2.11288 -1.86736
rtoes 2.62754
lfemur -33.8648 5.75114 -21.1626
ltibia 55.8985
lfoot -8.96052 0.502822
ltoes -16.3545
2607
root -1.4971 17.9009 -4.56315 7.18514 -34.9162 4.29576
lowerback 10.0194 0.756133 -3.93864
upperback 1.08394 0.627724 1.47566
thorax -4.55035 0.389413 3.67844
lowerneck -23.8255 -0.548923 -8.07103
upperneck 18.939 0.934285 4.73082
head 9.87581 0.407508 3.14094
rclavicle 1.10922e-013 2.22639e-014
rhumerus -6.90343 1.67219 -73.6344
rradius 120.443
rwrist -11.7698
rhand -12.9634 28.0632
rfingers 7.12502
rthumb 13.1284 -1.50353
lclavicle 1.10922e-013 2.22639e-014
lhumerus 3.67365 -6.48515 79.9977
lradius 119.514
lwrist -3.10805
lhand -16.7158 9.46798
lfingers 7.12502
lthumb 9.50955 39.2334
rfemur -17.85 -3.54783 17.6136
rtibia 55.811
rfoot -4.51411 -1.86521
rtoes -0.444763
lfemur -34.965 5.18547 -20.964
ltibia 55.242
lfoot -9.04743 0.102576
ltoes -17.2007
2608
root -1.46419 17.8441 -4.61429 7.48563 -34.7799 4.25516
lowerback 9.86201 0.99121 -3.90658
upperback 1.0702 0.939702 1.26399
thorax -4.50182 0.540546 3.39505
lowerneck -24.3796 -0.805426 -8.0358
upperneck 19.0558 0.605902 4.77084
head 10.0397 0.265555 3.1102
rclavicle 5.92378e-014 -1.66979e-014
rhumerus -6.67987 1.53042 -73.8934
rradius 120.119
rwrist -11.954
rhand -13.0984 28.062
rfingers 7.12502
rthumb 12.9983 -1.51307
lclavicle 5.92378e-014 -1.66979e-014
lhumerus 3.55247 -6.56796 79.9771
lradius 119.699
lwrist -2.98677
lhand -16.6363 9.34033
lfingers 7.12502
lthumb 9.58628 39.1022
rfemur -15.998 -2.87044 18.1932
rtibia 53.2382
rfoot -6.98302 -1.97368
rtoes -3.23186
lfemur -35.9262 4.74048 -20.4654
ltibia 54.4713
lfoot -8.49093 -0.500531
ltoes -18.5417
2609
root -1.4344 17.7771 -4.663 7.80925 -34.8431 4.10103
lowerback 9.65054 1.16398 -3.9575
upperback 1.02504 1.17101 1.23838
thorax -4.45203 0.655689 3.36677
lowerneck -24.5806 -0.913897 -8.24985
upperneck 19.0491 0.559711 4.74009
head 10.0763 0.225973 3.12919
rclavicle -3.16068e-014 1.66979e-014
rhumerus -6.53731 1.8689 -74.0086
rradius 119.845
rwrist -12.3266
rhand -13.5464 28.1904
rfingers 7.12502
rthumb 12.5665 -1.41166
lclavicle -3.16068e-014 1.66979e-014
lhumerus 3.12086 -6.1502 80.1221
lradius 119.896
lwrist -2.72759
lhand -16.531 9.20892
lfingers 7.12502
lthumb 9.68783 38.9661
rfemur -14.17 -1.95272 18.8573
rtibia 50.5672
rfoot -9.46773 -1.85212
rtoes -6.99989
lfemur -36.7506 4.44591 -19.7988
ltibia 53.6616
lfoot -7.56863 -1.06644
ltoes -19.9926
2610
root -1.39947 17.6992 -4.709 8.07597 -34.6928 3.9838
lowerback 9.5275 1.21497 -3.93946
upperback 0.912113 1.24548 1.23852
thorax -4.50773 0.695862 3.3472
lowerneck -24.4526 -0.934195 -8.4746
upperneck 18.9163 0.616643 4.68471
head 10.002 0.230248 3.14994
rclavicle -1.80894e-014 -3.26007e-014
rhumerus -6.53102 2.27767 -74.1806
rradius 119.629
rwrist -12.8694
rhand -14.0019 28.3988
rfingers 7.12502
rthumb 12.1273 -1.22976
lclavicle -1.80894e-014 -3.26007e-014
lhumerus 2.52412 -5.57695 80.424
lradius 120.144
lwrist -2.42979
lhand -16.4136 9.01304
lfingers 7.12502
lthumb 9.80111 38.7649
rfemur -12.3796 -1.24271 19.4867
rtibia 47.916
rfoot -12.4726 -1.38221
rtoes -8.23813
lfemur -37.5473 3.90976 -19.0966
ltibia 52.8541
lfoot -6.60679 -1.60738
ltoes -19.9835
